<?xml version="1.0" encoding="utf-8"?>
<!-- Generator: Adobe Illustrator 22.0.1, SVG Export Plug-In . SVG Version: 6.00 Build 0)  -->
<svg version="1.1" id="Layer_1" xmlns="http://www.w3.org/2000/svg" xmlns:xlink="http://www.w3.org/1999/xlink" x="0px" y="0px"
	 viewBox="0 0 400 400" enable-background="new 0 0 400 400" xml:space="preserve">
<g>
	<path fill="none" d="M16,383.5c-0.3,0-0.5-0.2-0.5-0.5V20c0-0.3,0.2-0.5,0.5-0.5h363c0.3,0,0.5,0.2,0.5,0.5v363
		c0,0.3-0.2,0.5-0.5,0.5H16z"/>
	<path fill="#4D4D4D" d="M377,22v359H18V22H377 M379,17H16c-1.6,0-3,1.4-3,3v363c0,1.6,1.4,3,3,3h363c1.6,0,3-1.4,3-3V20
		C382,18.4,380.6,17,379,17L379,17z"/>
</g>
<line fill="#FFFFFF" stroke="#4D4D4D" stroke-width="5" stroke-linecap="round" stroke-linejoin="round" stroke-miterlimit="10" x1="18.5" y1="22.5" x2="379.5" y2="383.5"/>
<line fill="#FFFFFF" stroke="#4D4D4D" stroke-width="5" stroke-linecap="round" stroke-linejoin="round" stroke-miterlimit="10" x1="17.2" y1="382.2" x2="378.2" y2="21.2"/>
</svg>
