<?xml version="1.0" encoding="utf-8"?>
<!-- Generator: Adobe Illustrator 22.0.1, SVG Export Plug-In . SVG Version: 6.00 Build 0)  -->
<svg version="1.1" id="Layer_1" xmlns="http://www.w3.org/2000/svg" xmlns:xlink="http://www.w3.org/1999/xlink" x="0px" y="0px"
	 viewBox="0 0 562 561" enable-background="new 0 0 562 561" xml:space="preserve">
<path fill="#B4E2F0" stroke="#B4E2F0" stroke-width="6" stroke-miterlimit="10" d="M530.1,535h-488c-1.6,0-3-1.3-3-3l0,0
	c0-1.7,1.3-3,3-3h488c1.6,0,3,1.3,3,3l0,0C533.1,533.7,531.8,535,530.1,535z"/>
<circle fill="none" stroke="#B4E2F0" stroke-width="6" stroke-miterlimit="10" cx="479.1" cy="471" r="12"/>
<path fill="#B4E2F0" stroke="#B4E2F0" stroke-width="6" stroke-miterlimit="10" d="M212.4,475.5h217.5c1.8,0,3.3-1.5,3.3-3.3l0,0
	c0-1.8-1.5-3.3-3.3-3.3H212.4c-1.8,0-3.3,1.5-3.3,3.3l0,0C209.1,474,210.6,475.5,212.4,475.5z"/>
<ellipse fill="none" stroke="#B4E2F0" stroke-width="6" stroke-miterlimit="10" cx="49.2" cy="434.7" rx="12" ry="12"/>
<ellipse fill="none" stroke="#B4E2F0" stroke-width="6" stroke-miterlimit="10" cx="498" cy="51.8" rx="8.8" ry="8.8"/>
<path fill="#B4E2F2" stroke="#B4E2F2" stroke-miterlimit="10" d="M136.8,373.7c-48.5-32.2-79.2-80.3-79.2-134
	C57.6,142.7,158,64,281.9,64s224.3,78.7,224.3,175.7S405.7,415.4,281.9,415.4c-30.5,0-68.7-6.3-95.3-14.9"/>
<polyline fill="#B4E2F2" stroke="#B4E2F2" stroke-miterlimit="10" points="136.7,373.1 127.6,448.5 185.6,399.5 "/>
<path fill="none" stroke="#002C47" stroke-width="7" stroke-linecap="round" stroke-linejoin="round" stroke-miterlimit="10" d="
	M125.8,384.7c-48.5-32.2-79.2-80.3-79.2-134C46.6,153.7,147,75,270.9,75s224.3,78.7,224.3,175.7S394.7,426.4,270.9,426.4
	c-30.5,0-59.6-4.8-86.1-13.4"/>
<polyline fill="none" stroke="#002C47" stroke-width="7" stroke-linecap="round" stroke-linejoin="round" stroke-miterlimit="10" points="
	126.7,384.1 117.6,458.5 147.6,432.6 "/>
<g>
	<circle fill="#002C47" cx="205.1" cy="254" r="9.5"/>
	<path fill="#002C47" d="M205.1,245c5,0,9,4,9,9s-4,9-9,9c-5,0-9-4-9-9S200.1,245,205.1,245 M205.1,244c-5.5,0-10,4.5-10,10
		c0,5.5,4.5,10,10,10c5.5,0,10-4.5,10-10C215.1,248.5,210.6,244,205.1,244L205.1,244z"/>
</g>
<g>
	<circle fill="#002C47" cx="275.1" cy="254" r="9.5"/>
	<path fill="#002C47" d="M275.1,245c5,0,9,4,9,9s-4,9-9,9s-9-4-9-9S270.1,245,275.1,245 M275.1,244c-5.5,0-10,4.5-10,10
		c0,5.5,4.5,10,10,10s10-4.5,10-10C285.1,248.5,280.6,244,275.1,244L275.1,244z"/>
</g>
<g>
	<circle fill="#002C47" cx="345.1" cy="254" r="9.5"/>
	<path fill="#002C47" d="M345.1,245c5,0,9,4,9,9s-4,9-9,9s-9-4-9-9S340.1,245,345.1,245 M345.1,244c-5.5,0-10,4.5-10,10
		c0,5.5,4.5,10,10,10s10-4.5,10-10C355.1,248.5,350.6,244,345.1,244L345.1,244z"/>
</g>
</svg>
